<svg width="330" height="232" viewBox="0 0 330 232" fill="none" xmlns="http://www.w3.org/2000/svg">
<mask id="path-2-inside-1_214_3111" fill="white">
<path d="M0.320312 6.28622C0.320312 3.04035 2.9516 0.409058 6.19747 0.409058H323.287C326.533 0.409058 329.164 3.04035 329.164 6.28621V24.2251H0.320312V6.28622Z"/>
</mask>
<path d="M0.320312 6.28622C0.320312 3.04035 2.9516 0.409058 6.19747 0.409058H323.287C326.533 0.409058 329.164 3.04035 329.164 6.28621V24.2251H0.320312V6.28622Z" fill="white" fill-opacity="0.2"/>
<path d="M-2.67969 6.28621C-2.67969 1.3835 1.29475 -2.59094 6.19747 -2.59094H323.287C328.19 -2.59094 332.164 1.3835 332.164 6.28621L326.164 6.28621C326.164 4.6972 324.876 3.40906 323.287 3.40906H6.19747C4.60846 3.40906 3.32031 4.6972 3.32031 6.28621L-2.67969 6.28621ZM329.164 24.2251H0.320312H329.164ZM-2.67969 24.2251V6.28621C-2.67969 1.3835 1.29475 -2.59094 6.19747 -2.59094L6.19747 3.40906C4.60846 3.40906 3.32031 4.6972 3.32031 6.28621V24.2251H-2.67969ZM323.287 -2.59094C328.19 -2.59094 332.164 1.3835 332.164 6.28621V24.2251H326.164V6.28621C326.164 4.6972 324.876 3.40906 323.287 3.40906V-2.59094Z" fill="#ECECEC" mask="url(#path-2-inside-1_214_3111)"/>
<path d="M327.664 25.7251V225.364C327.664 227.781 325.705 229.741 323.287 229.741H6.19748C3.78005 229.741 1.82031 227.781 1.82031 225.364V25.7251H327.664Z" fill="white" fill-opacity="0.1" stroke="url(#paint0_linear_214_3111)" stroke-width="3"/>
<circle cx="12.0733" cy="13.9953" r="2.93858" fill="#ECECEC"/>
<circle cx="20.8897" cy="13.9953" r="2.93858" fill="#ECECEC"/>
<circle cx="29.7042" cy="13.9953" r="2.93858" fill="#ECECEC"/>
<defs>
<linearGradient id="paint0_linear_214_3111" x1="164.742" y1="24.2251" x2="57.4414" y2="321.026" gradientUnits="userSpaceOnUse">
<stop stop-color="#ECECEC"/>
<stop offset="1" stop-color="#ECECEC" stop-opacity="0"/>
</linearGradient>
</defs>
</svg>
