<svg width="244" height="21" viewBox="0 0 244 21" fill="none" xmlns="http://www.w3.org/2000/svg">
<path d="M2.55387 19.9274C2.51459 19.9316 2.46176 19.9374 2.40232 19.944C2.18423 19.9681 1.87712 20.0021 1.82375 19.9999M2.55387 19.9274L155.217 9.67806C154.221 9.68786 153.225 9.6985 152.23 9.70999C152.229 9.70999 152.229 9.70999 152.229 9.70999C152.121 9.71124 152.013 9.71249 151.905 9.71376C118.715 10.1028 85.514 11.4312 52.4691 13.7471C48.376 14.034 44.1165 14.2396 39.7823 14.4487C26.927 15.069 13.4147 15.7209 1.64035 18.6222C0.855864 18.8174 1.00527 19.4031 1.02225 19.4617C1.05621 19.5816 1.19888 19.9804 1.82375 19.9999M2.55387 19.9274C4.54888 19.712 6.54077 19.4812 8.53249 19.2504C11.1823 18.9433 13.8318 18.6363 16.4879 18.3656L2.55387 19.9274ZM1.82375 19.9999L1.81554 20.1997C1.81586 20.1997 1.81619 20.1998 1.81652 20.1998M1.82375 19.9999L1.81751 20.1998C1.81718 20.1998 1.81685 20.1998 1.81652 20.1998M148.749 9.55357C116.605 9.988 84.4572 11.3048 52.4551 13.5476C48.3722 13.8338 44.1194 14.039 39.7893 14.2479C26.9291 14.8684 13.3875 15.5217 1.5925 18.428L1.59205 18.4281C1.14352 18.5397 0.923975 18.7777 0.840759 19.0307C0.764185 19.2635 0.816539 19.4699 0.829814 19.5162C0.851182 19.5916 0.907744 19.7588 1.06052 19.9104C1.21732 20.066 1.45841 20.1884 1.81652 20.1998M148.749 9.55357L1.81652 20.1998M148.749 9.55357C140.059 9.11174 137.478 8.98361 126.675 8.76245C104.614 8.31069 82.5452 8.34698 60.4773 8.39161M148.749 9.55357L187.822 4.91182M240.323 13.2284L240.32 13.4284C240.32 13.4284 240.32 13.4284 240.32 13.4284C240.32 13.4284 240.32 13.4284 240.32 13.4284L240.323 13.2284ZM240.323 13.2284C237.939 13.1978 234.512 13.1503 232.352 13.0806M240.323 13.2284C240.604 13.2329 241.237 13.2374 241.666 13.2404L241.936 13.2423M232.352 13.0806L241.922 13.4422M232.352 13.0806C228.763 12.9662 225.673 12.8174 222.422 12.6608M232.352 13.0806L222.422 12.6608M241.936 13.2423L241.906 13.4401C241.911 13.4409 241.917 13.4416 241.922 13.4422M241.936 13.2423L241.934 13.4423L241.922 13.4422M241.936 13.2423C241.973 13.2479 242.011 13.2479 242.051 13.2479C242.16 13.2479 242.226 13.243 242.257 13.2407C242.266 13.24 242.272 13.2395 242.275 13.2395C243.084 13.1419 243.009 12.5144 242.989 12.4196M241.922 13.4422C241.968 13.4479 242.013 13.4479 242.047 13.4479L242.051 13.4479C242.127 13.4479 242.183 13.4457 242.223 13.4434C242.243 13.4422 242.259 13.4411 242.27 13.4403L242.28 13.4395M242.989 12.4196L243.186 12.3853C243.185 12.3835 243.185 12.3814 243.185 12.379M242.989 12.4196L243.184 12.3776C243.184 12.3781 243.184 12.3785 243.185 12.379M242.989 12.4196C242.985 12.4001 242.863 11.8702 242.167 11.8506M243.185 12.379C243.199 12.4499 243.228 12.6765 243.126 12.9092C243.014 13.1628 242.764 13.3819 242.299 13.4381L242.287 13.4395H242.28M243.185 12.379C243.175 12.3325 243.129 12.1676 242.989 12.0048C242.836 11.8259 242.579 11.6624 242.174 11.6508M242.28 13.4395L242.281 13.4394C242.281 13.4394 242.279 13.4395 242.275 13.4395H242.28ZM242.174 11.6508L242.167 11.8506M242.174 11.6508C242.173 11.6508 242.173 11.6507 242.172 11.6507L242.167 11.8506M242.174 11.6508L240.353 11.634M242.167 11.8506C242.07 11.8474 241.625 11.8442 241.18 11.8409C240.861 11.8386 240.541 11.8363 240.35 11.834M240.35 11.834L240.353 11.634M240.35 11.834L240.352 11.634C240.352 11.634 240.352 11.634 240.353 11.634M240.35 11.834C237.979 11.8033 234.566 11.7559 232.417 11.6889M240.353 11.634C237.982 11.6033 234.571 11.5559 232.423 11.489M232.417 11.6889L232.423 11.489C232.423 11.489 232.423 11.489 232.423 11.489M232.417 11.6889C228.832 11.5745 225.746 11.4256 222.498 11.2689C220.601 11.1774 218.648 11.0832 216.51 10.9917C210.722 10.7446 206.537 10.5187 202.929 10.3239C195.256 9.90953 190.192 9.63607 177.861 9.60003M232.417 11.6889L232.423 11.489M232.423 11.489L177.861 9.60003M177.861 9.60003L177.862 9.40003C175.686 9.39455 173.507 9.39176 171.33 9.39431M177.861 9.60003L185.238 4.8421L185.236 5.04209C185.236 5.04209 185.235 5.04209 185.235 5.04208C183.699 5.02657 182.17 4.99684 180.641 4.96714C178.86 4.93252 177.08 4.89793 175.293 4.8859C168.108 4.84025 160.925 4.9428 153.74 5.0454C151.269 5.08068 148.797 5.11597 146.325 5.14524C140.379 5.21668 134.421 5.25939 128.457 5.30214C109.856 5.43548 91.1988 5.56922 72.6782 6.57632M177.861 9.60003C175.647 9.59445 173.43 9.59166 171.215 9.59445M177.861 9.60003L69.1093 6.58118C70.2989 6.57933 71.4886 6.57769 72.6782 6.57632M171.33 9.39431C171.209 9.21734 170.998 9.05752 170.649 8.98328L170.649 8.98322C170.545 8.96124 170.309 8.94313 170.022 8.9263C169.727 8.90898 169.357 8.89211 168.97 8.87555C168.805 8.86852 168.638 8.86155 168.471 8.85463C167.851 8.82882 167.246 8.80368 166.875 8.77856L166.862 8.9781M171.33 9.39431C171.356 9.43211 171.378 9.47069 171.396 9.50938L171.215 9.59445M171.33 9.39431C171.292 9.39435 171.254 9.3944 171.215 9.39445L171.215 9.59445M166.862 8.9781L166.875 8.77856C160.482 8.34631 160.087 8.32653 154.223 8.03282C153.654 8.0043 153.033 7.9732 152.35 7.93889C151.118 7.87682 149.995 7.81981 148.959 7.76719C140.173 7.32085 137.6 7.19016 126.724 6.96806C108.712 6.59945 90.6932 6.55571 72.6782 6.57632M166.862 8.9781C160.47 8.54597 160.076 8.52624 154.214 8.2326C153.644 8.20407 153.023 8.17296 152.34 8.13863C151.107 8.07656 149.985 8.01954 148.949 7.96692C140.163 7.52064 137.593 7.39005 126.72 7.16802C107.523 6.77516 88.3173 6.75135 69.1155 6.78117C70.3025 6.70914 71.4901 6.64093 72.6782 6.57632M166.862 8.9781C167.236 9.00342 167.844 9.02872 168.465 9.05455C169.418 9.09417 170.4 9.135 170.607 9.1789C170.974 9.25699 171.141 9.43548 171.215 9.59445M187.822 4.91182L187.858 5.10855C187.858 5.10853 187.858 5.1085 187.858 5.10848M187.822 4.91182C188.355 4.81421 188.471 4.49067 188.505 4.3317C188.522 4.23688 188.576 3.69025 187.761 3.49502C183.49 2.47154 176.447 2.26999 170.959 2.11295C169.299 2.06544 167.781 2.022 166.525 1.96111C136.114 0.482975 105.641 0.895727 75.2158 1.94994M187.822 4.91182L37.6283 4.011M187.822 4.91182L187.858 5.10848M187.822 4.91182L187.858 5.10848M187.858 5.10848C188.163 5.05261 188.368 4.92773 188.5 4.77715C188.631 4.62886 188.679 4.47142 188.7 4.3735L188.701 4.36696C188.714 4.29696 188.736 4.08795 188.624 3.86181C188.506 3.62617 188.261 3.40916 187.807 3.30052C185.006 2.62908 181.031 2.31073 177.094 2.12668C175.123 2.03455 173.157 1.97594 171.348 1.924L170.966 1.91305C169.305 1.86551 167.789 1.82213 166.535 1.76134C136.116 0.282825 105.637 0.695761 75.2089 1.75006L75.2158 1.94994M75.2158 1.94994L75.2088 1.75006C62.6484 2.18799 50.1274 2.8101 37.6124 3.81163M75.2158 1.94994C62.6572 2.3878 50.1393 3.00977 37.6283 4.011M37.6124 3.81163C36.6201 3.89078 35.6268 3.96752 34.6332 4.04428C31.2533 4.30539 27.8691 4.56684 24.5018 4.9249L24.5016 4.92492C24.2602 4.95078 23.905 4.98134 23.5126 5.0151C22.7914 5.07715 21.9444 5.15002 21.4473 5.22439M37.6124 3.81163L37.6283 4.011M37.6124 3.81163C37.6124 3.81164 37.6124 3.81164 37.6123 3.81164L37.6283 4.011M21.4473 5.22439C21.1208 5.27288 20.8681 5.34319 20.7406 5.40246M21.4473 5.22439L21.4767 5.42222M21.4473 5.22439C21.4472 5.2244 21.4472 5.22441 21.4471 5.22442L21.4767 5.42222M20.7406 5.40246C20.5113 5.50868 20.3609 5.64664 20.2698 5.7987C20.1798 5.9488 20.1563 6.09796 20.156 6.2147M20.7406 5.40246L20.8246 5.58393M20.7406 5.40246C20.7405 5.4025 20.7404 5.40255 20.7403 5.4026L20.8246 5.58393M20.156 6.2147C20.1539 6.31901 20.1796 6.52342 20.3345 6.7236C20.4935 6.92906 20.7696 7.10552 21.2242 7.17865L21.2242 7.17865C31.2395 8.78925 41.9538 8.63114 52.281 8.47874C55.0479 8.43791 57.7869 8.39749 60.4773 8.39161M20.156 6.2147C20.156 6.21384 20.156 6.21299 20.156 6.21215L20.356 6.21702M20.156 6.2147C20.156 6.21547 20.156 6.21625 20.156 6.21702H20.356M60.4773 8.39161L60.4769 8.19161L60.4774 8.39161C60.4774 8.39161 60.4773 8.39161 60.4773 8.39161ZM20.356 6.21702C20.356 6.03574 20.4273 5.768 20.8246 5.58393M20.356 6.21702C20.3526 6.35647 20.4239 6.84732 21.2559 6.98119L20.8246 5.58393M20.8246 5.58393C20.9265 5.53652 21.1575 5.46963 21.4767 5.42222M20.8246 5.58393L21.4767 5.42222M60.4735 6.79714C62.8835 6.79227 65.2934 6.7875 67.7035 6.78345C67.5677 6.73939 67.4421 6.67179 67.3369 6.58407C67.4691 6.58385 67.6013 6.58362 67.7335 6.5834L60.4735 6.79714ZM60.4735 6.79714C57.7725 6.80336 55.0241 6.84519 52.2494 6.88742C44.1794 7.01025 35.8861 7.13648 27.8841 6.39995L60.4735 6.79714ZM21.4767 5.42222C21.9687 5.34859 22.7987 5.27727 23.515 5.2157C23.9112 5.18166 24.2726 5.1506 24.5229 5.12378C27.8871 4.76605 31.2674 4.5049 34.6468 4.24383C35.6409 4.16703 36.6348 4.09024 37.6283 4.011M21.4767 5.42222L37.6283 4.011M177.855 10.9945C173.525 10.9833 169.195 10.9861 164.865 11.0056L177.855 10.9945ZM177.855 10.9945C190.175 11.0306 195.219 11.3031 202.882 11.717M177.855 10.9945L202.882 11.717M202.882 11.717C206.478 11.9113 210.65 12.1367 216.421 12.3834M202.882 11.717L216.421 12.3834M216.421 12.3834C218.565 12.475 220.522 12.5692 222.422 12.6608M216.421 12.3834L222.422 12.6608M27.8842 6.19911C30.1711 5.98958 32.4627 5.81234 34.7538 5.63513C35.7676 5.55671 36.7814 5.47829 37.7947 5.39709L27.8842 6.19911Z" fill="#56B1B6" stroke="#56B1B6" stroke-width="0.4"/>
</svg>
