<svg width="165" height="115" viewBox="0 0 165 115" fill="none" xmlns="http://www.w3.org/2000/svg">
<path d="M30.9129 59C52.539 59 82.3627 57.0354 102.054 43.9661C107.251 40.5169 113.692 31.2068 109.815 22.5847C107.368 17.1415 102.775 13.0748 98.3939 10.7953C90.6499 6.76613 82.2809 4.57369 73.9839 3.36718C56.9943 0.896604 37.3983 1.29616 21.1101 8.58496C15.0409 11.3008 1.10596 16.5243 2.04524 30.9802C3.4543 44.5262 12.6467 45.9215 20.19 48.2981C34.5792 52.8317 49.6296 52.1836 65.5716 49.9631" stroke="#FCBF72" stroke-width="4" stroke-linecap="round"/>
<path d="M123 27C131 27 148.333 27.0509 154.625 48.2399C156.225 57.0222 148.218 61.2997 146.631 62.5997C143.823 64.8997 140.306 67.2365 138.093 70.1647C135.729 73.2944 139.332 74.2115 141.776 75.3493C150.159 79.2512 149.454 83.4634 141.927 87.9522C129.495 95.3666 114.61 98.3801 101.195 103.413C96.4868 105.18 91.6294 106.266 87.025 108.292C85.4122 109.002 84.554 108.479 85.8171 106.943C86.7193 105.846 93.2735 98.6898 89.6927 102.831C88.1777 104.582 84.6718 106.049 83.6468 108.028C82.9751 109.324 93.1332 110.701 95.1149 112.482" stroke="#FCBF72" stroke-width="4" stroke-linecap="round"/>
</svg>
